<?xml version="1.0" encoding="UTF-8" standalone="no"?>
<!-- Created with Inkscape (http://www.inkscape.org/) -->

<svg
   width="210mm"
   height="297mm"
   viewBox="0 0 210 297"
   version="1.1"
   id="svg1"
   xml:space="preserve"
   xmlns="http://www.w3.org/2000/svg"
   xmlns:svg="http://www.w3.org/2000/svg"><defs
     id="defs1" /><g
     id="layer1"><path
       style="fill:#000000"
       d="m 32.994012,172.50945 c -1.13566,-1.05659 -2.27372,-5.27695 -9.87435,-36.61799 -6.77925,-27.95413 -8.47891,-35.64385 -8.06043,-36.467496 0.29677,-0.58408 1.30433,-1.19669 2.28782,-1.39104 0.96663,-0.19101 1.75751,-0.44509 1.75751,-0.56462 0,-0.11954 -3.29361,-13.88631 -7.319128,-30.59282 C 0.46290693,19.885312 0.76439793,21.222946 1.1402369,19.645621 c 0.678238,-2.846435 4.438337,-2.563244 5.368127,0.404299 l 0.567335,1.81072 2.865089,-2.461951 C 19.619582,11.081767 31.430412,5.2663368 44.972342,2.1498158 c 4.48124,-1.031308 6.60266,-1.17870905 16.963303,-1.17864705 13.19333,8e-5 16.60867,0.52891105 26.94519,4.17219005 7.91458,2.789628 19.413145,9.2106492 19.413145,10.8406762 0,0.448904 -0.34393,0.631674 -0.88181,0.4686 -0.485,-0.147041 -3.26272,-0.992858 -6.17272,-1.879593 -19.852605,-6.0494992 -40.169198,-5.7751482 -58.955718,0.796127 -11.76831,4.1164 -23.79576,11.977695 -29.898148,19.541814 l -1.715455,2.126365 7.015923,29.173486 c 3.85875,16.04542 7.11999,29.2831 7.24718,29.41708 0.40362,0.42515 7.75232,-1.60105 8.1507,-2.24733 0.2099,-0.34051 0.50062,-10.88949 0.64604,-23.44216 l 0.26441,-22.823054 1.28686,-3.51346 c 1.9228,-5.24976 3.80392,-8.337512 7.27479,-11.941172 9.25457,-9.608626 23.671663,-11.317707 35.312563,-4.186143 3.63404,2.226329 8.23548,7.427191 10.38415,11.736899 3.55512,7.130712 3.39699,3.817459 3.40526,71.345316 0.007,54.1668 -0.078,60.91608 -0.77697,61.96723 l -0.78441,1.17964 H 62.187115 34.277612 Z m 23.10974,-96.424002 c 0.86257,-1.00396 0.8886,-1.00396 1.84173,0 0.53173,0.56009 1.4203,1.01835 1.97458,1.01835 0.55429,0 1.44285,-0.45826 1.974583,-1.01835 0.95313,-1.00396 0.97917,-1.00396 1.84173,0 1.1028,1.28356 2.46764,1.29926 3.66115,0.0421 0.89984,-0.94783 0.96015,-0.94783 2.0714,0 0.62952,0.53694 1.45959,0.97625 1.8446,0.97625 1.34903,0 2.71511,-2.05792 2.73059,-4.11345 0.0141,-1.873164 0.19491,-2.098954 3.07002,-3.833744 6.41293,-3.86944 9.47231,-11.24503 8.04289,-19.389879 -2.76906,-15.778097 -18.53793,-24.49807 -32.169813,-17.789477 -12.67066,6.235548 -17.22786,24.711626 -8.41713,34.125216 1.24837,1.33379 3.28541,2.94296 4.52676,3.57594 2.10241,1.07204 2.25701,1.29305 2.25701,3.226594 0,3.52693 2.82629,5.41937 4.7499,3.18045 z m 4.52615,-6.490814 c -0.1816,-0.30951 0.21735,-1.13949 0.88656,-1.84439 l 1.216743,-1.28164 1.13996,1.11867 c 0.62697,0.61526 1.05252,1.39597 0.94567,1.73491 -0.24875,0.78904 -3.752123,1.01691 -4.188933,0.27245 z m -12.68195,-4.16488 c -6.55458,-4.20951 -3.75231,-14.86042 3.90979,-14.86042 7.66211,0 10.464373,10.65091 3.90979,14.86042 -2.15598,1.38463 -5.6636,1.38463 -7.81958,0 z m 21.667483,0 c -6.55457,-4.20951 -3.75231,-14.86042 3.9098,-14.86042 7.6621,0 10.46437,10.65091 3.90979,14.86042 -2.15599,1.38463 -5.6636,1.38463 -7.81959,0 z"
       id="path1" /></g></svg>
